# Exported from Wings 3D 1.5.4
mtllib Delta_GEM.mtl
o sphere2
#120 vertices, 106 faces
v 0.37700000 -2.74795698 -9.2762055e-19
v 0.34440664 -2.74795698 0.15333971
v 0.25226224 -2.74795698 0.28016560
v 0.11649941 -2.74795698 0.35854831
v -3.9407231e-2 -2.74795698 0.37493475
v -0.18850000 -2.74795698 0.32649158
v -0.30499941 -2.74795698 0.22159504
v -0.36876165 -2.74795698 7.8382707e-2
v -0.36876165 -2.74795698 -7.8382707e-2
v -0.30499941 -2.74795698 -0.22159504
v -0.18850000 -2.74795698 -0.32649158
v -3.9407231e-2 -2.74795698 -0.37493475
v 0.11649941 -2.74795698 -0.35854831
v 0.25226224 -2.74795698 -0.28016560
v 0.34440664 -2.74795698 -0.15333971
v 0.35854831 -2.86445638 -9.2762055e-19
v 0.32755018 -2.86445638 0.14583473
v 0.23991565 -2.86445638 0.26645332
v 0.11079752 -2.86445638 0.34099970
v -3.7478504e-2 -2.86445638 0.35658414
v -0.17927415 -2.86445638 0.31051194
v -0.29007167 -2.86445638 0.21074941
v -0.35071317 -2.86445638 7.4546385e-2
v -0.35071317 -2.86445638 -7.4546385e-2
v -0.29007167 -2.86445638 -0.21074941
v -0.17927415 -2.86445638 -0.31051194
v -3.7478504e-2 -2.86445638 -0.35658414
v 0.11079752 -2.86445638 -0.34099970
v 0.23991565 -2.86445638 -0.26645332
v 0.32755018 -2.86445638 -0.14583473
v 0.30499941 -2.96955202 -9.2762055e-19
v 0.27863082 -2.96955202 0.12405443
v 0.20408444 -2.96955202 0.22665873
v 9.4250000e-2 -2.96955202 0.29007167
v -3.1881119e-2 -2.96955202 0.30332859
v -0.15249970 -2.96955202 0.26413723
v -0.24674970 -2.96955202 0.17927415
v -0.29833444 -2.96955202 6.3412942e-2
v -0.29833444 -2.96955202 -6.3412942e-2
v -0.24674970 -2.96955202 -0.17927415
v -0.15249970 -2.96955202 -0.26413723
v -3.1881119e-2 -2.96955202 -0.30332859
v 9.4250000e-2 -2.96955202 -0.29007167
v 0.20408444 -2.96955202 -0.22665873
v 0.27863082 -2.96955202 -0.12405443
v 0.22159504 -3.05295638 -9.2762055e-19
v 0.20243714 -3.05295638 9.0130823e-2
v 0.14827602 -3.05295638 0.16467721
v 6.8476633e-2 -3.05295638 0.21074941
v -2.3162989e-2 -3.05295638 0.22038112
v -0.11079752 -3.05295638 0.19190693
v -0.17927415 -3.05295638 0.13025030
v -0.21675266 -3.05295638 4.6072199e-2
v -0.21675266 -3.05295638 -4.6072199e-2
v -0.17927415 -3.05295638 -0.13025030
v -0.11079752 -3.05295638 -0.19190693
v -2.3162989e-2 -3.05295638 -0.22038112
v 6.8476633e-2 -3.05295638 -0.21074941
v 0.14827602 -3.05295638 -0.16467721
v 0.20243714 -3.05295638 -9.0130823e-2
v 0.22159504 -3.09238745 6.4828565e-17
v 0.20243714 -3.09238745 9.0130823e-2
v 0.14827602 -3.09238745 0.16467721
v 6.8476633e-2 -3.09238745 0.21074941
v -2.3162989e-2 -3.09238745 0.22038112
v -0.11079752 -3.09238745 0.19190693
v -0.17927415 -3.09238745 0.13025030
v -0.21675266 -3.09238745 4.6072199e-2
v -0.21675266 -3.09238745 -4.6072199e-2
v -0.17927415 -3.09238745 -0.13025030
v -0.11079752 -3.09238745 -0.19190693
v -2.3162989e-2 -3.09238745 -0.22038112
v 6.8476633e-2 -3.09238745 -0.21074941
v 0.14827602 -3.09238745 -0.16467721
v 0.20243714 -3.09238745 -9.0130823e-2
v 0.49991841 -3.94062481 0.17883386
v 0.45669819 -3.88662792 0.37486833
v 0.33451071 -3.84196758 0.53700666
v 0.15448328 -3.81436598 0.63721366
v -5.2255703e-2 -3.80859567 0.65816262
v -0.24995921 -3.82565440 0.59623129
v -0.40444249 -3.86259256 0.46212815
v -0.48899399 -3.91302320 0.27904086
v -0.48899399 -3.96822642 7.8626860e-2
v -0.40444249 -4.01865706 -0.10446044
v -0.24995921 -4.05559522 -0.23856358
v -5.2255703e-2 -4.07265395 -0.30049491
v 0.15448328 -4.06688364 -0.27954594
v 0.33451071 -4.03928204 -0.17933894
v 0.45669819 -3.99462170 -1.7200611e-2
v 0.46792363 -3.94062481 0.17883386
v 0.42746951 -3.89008372 0.36232212
v 0.31310202 -3.84828165 0.51408360
v 0.14459635 -3.82244654 0.60787735
v -4.8911338e-2 -3.81704554 0.62748558
v -0.23396182 -3.83301251 0.56951786
v -0.37855817 -3.86758662 0.44399732
v -0.45769838 -3.91478971 0.27262761
v -0.45769838 -3.96645991 8.5040108e-2
v -0.37855817 -4.01366300 -8.6329601e-2
v -0.23396182 -4.04823711 -0.21185014
v -4.8911338e-2 -4.06420408 -0.26981787
v 0.14459635 -4.05880308 -0.25020963
v 0.31310202 -4.03296797 -0.15641588
v 0.42746951 -3.99116590 -4.6544053e-3
v 1.9652793e-2 -3.11781897 -1.8872830e-14
v 1.7953719e-2 -3.11781897 7.9935109e-3
v 1.3150285e-2 -3.11781897 1.4604871e-2
v 6.0730469e-3 -3.11781897 1.8690916e-2
v -2.0542762e-3 -3.11781897 1.9545132e-2
v -9.8263963e-3 -3.11781897 1.7019818e-2
v -1.5899443e-2 -3.11781897 1.1551622e-2
v -1.9223332e-2 -3.11781897 4.0860453e-3
v -1.9223332e-2 -3.11781897 -4.0860453e-3
v -1.5899443e-2 -3.11781897 -1.1551622e-2
v -9.8263963e-3 -3.11781897 -1.7019818e-2
v -2.0542762e-3 -3.11781897 -1.9545132e-2
v 6.0730469e-3 -3.11781897 -1.8690916e-2
v 1.3150285e-2 -3.11781897 -1.4604871e-2
v 1.7953719e-2 -3.11781897 -7.9935109e-3
vn 0.98768834 -0.15643447 -1.7016384e-16
vn 0.90229820 -0.15643447 0.40172904
vn 0.66089250 -0.15643447 0.73399548
vn 0.30521248 -0.15643447 0.93934743
vn -0.10324154 -0.15643447 0.98227768
vn -0.49384417 -0.15643447 0.85536319
vn -0.79905665 -0.15643447 0.58054864
vn -0.96610498 -0.15643447 0.20535195
vn -0.96610498 -0.15643447 -0.20535195
vn -0.79905665 -0.15643447 -0.58054864
vn -0.49384417 -0.15643447 -0.85536319
vn -0.10324154 -0.15643447 -0.98227768
vn 0.30521248 -0.15643447 -0.93934743
vn 0.66089250 -0.15643447 -0.73399548
vn 0.90229820 -0.15643447 -0.40172904
vn 0.95095992 -0.30931414 -1.8627382e-16
vn 0.86874511 -0.30931414 0.38679024
vn 0.63631639 -0.30931414 0.70670094
vn 0.29386278 -0.30931414 0.90441663
vn -9.9402379e-2 -0.30931414 0.94575046
vn -0.47547996 -0.30931414 0.82355545
vn -0.76934273 -0.30931414 0.55896021
vn -0.93017916 -0.30931414 0.19771568
vn -0.93017916 -0.30931414 -0.19771568
vn -0.76934273 -0.30931414 -0.55896021
vn -0.47547996 -0.30931414 -0.82355545
vn -9.9402379e-2 -0.30931414 -0.94575046
vn 0.29386278 -0.30931414 -0.90441663
vn 0.63631639 -0.30931414 -0.70670094
vn 0.86874511 -0.30931414 -0.38679024
vn 0.80871663 -0.58819845 -1.7818024e-16
vn 0.73879940 -0.58819845 0.32893469
vn 0.54113705 -0.58819845 0.60099358
vn 0.24990718 -0.58819845 0.76913522
vn -8.4533906e-2 -0.58819845 0.80428639
vn -0.40435831 -0.58819845 0.70036914
vn -0.65426549 -0.58819845 0.47535171
vn -0.79104423 -0.58819845 0.16814164
vn -0.79104423 -0.58819845 -0.16814164
vn -0.65426549 -0.58819845 -0.47535171
vn -0.40435831 -0.58819845 -0.70036914
vn -8.4533906e-2 -0.58819845 -0.80428639
vn 0.24990718 -0.58819845 -0.76913522
vn 0.54113705 -0.58819845 -0.60099358
vn 0.73879940 -0.58819845 -0.32893469
vn 0.92301128 -0.38477290 -2.1382011e-16
vn 0.84321276 -0.38477290 0.37542251
vn 0.61761510 -0.38477290 0.68593106
vn 0.28522617 -0.38477290 0.87783589
vn -9.6480950e-2 -0.38477290 0.91795493
vn -0.46150564 -0.38477290 0.79935121
vn -0.74673181 -0.38477290 0.54253242
vn -0.90284127 -0.38477290 0.19190484
vn -0.90284127 -0.38477290 -0.19190484
vn -0.74673181 -0.38477290 -0.54253242
vn -0.46150564 -0.38477290 -0.79935121
vn -9.6480950e-2 -0.38477290 -0.91795493
vn 0.28522617 -0.38477290 -0.87783589
vn 0.61761510 -0.38477290 -0.68593106
vn 0.84321276 -0.38477290 -0.37542251
vn 0.98790714 0.15230017 -2.9054167e-2
vn 0.90705280 0.19962518 0.37068181
vn 0.66766828 0.23990400 0.70474473
vn 0.30941119 0.26534622 0.91315722
vn -0.10474208 0.27072062 0.95694276
vn -0.49990927 0.25488842 0.82772134
vn -0.80533063 0.22116986 0.55002406
vn -0.96869334 0.17630908 0.17478077
vn -0.96417029 0.12866194 -0.23199516
vn -0.79463734 8.6404493e-2 -0.60090411
vn -0.49002763 5.6201702e-2 -0.86989326
vn -0.10234905 4.2464766e-2 -0.99384175
vn 0.30266660 4.7096548e-2 -0.95193216
vn 0.65640178 6.9462931e-2 -0.75120677
vn 0.89875185 0.10639595 -0.42535282
vn 0.79921813 -0.57364812 0.17938289
vn 0.71805546 -0.49320311 0.49106726
vn 0.51817270 -0.42817167 0.74038238
vn 0.23699464 -0.38870668 0.89035985
vn -8.0000160e-2 -0.38052881 0.92130223
vn -0.38500498 -0.40477804 0.82941299
vn -0.63089886 -0.45802784 0.62624047
vn -0.77526467 -0.53228864 0.34004925
vn -0.78798977 -0.61547883 1.6060284e-2
vn -0.66059775 -0.69302465 -0.28866494
vn -0.41198115 -0.75064303 -0.51653322
vn -8.6466980e-2 -0.77745944 -0.62296090
vn 0.25528641 -0.76837475 -0.58688081
vn 0.54918924 -0.72511785 -0.41544590
vn 0.74128774 -0.65589465 -0.14245947
vn -0.51016852 -0.83005523 0.22524741
vn -0.47110003 -0.88181185 2.1739932e-2
vn -0.34803107 -0.92544080 -0.14977883
vn -0.16155750 -0.95276367 -0.25717808
vn 5.4706741e-2 -0.95850949 -0.27976190
vn 0.26085887 -0.94155675 -0.21312800
vn 0.41914147 -0.90520169 -7.0216315e-2
vn 0.50179613 -0.85637326 0.12175996
vn 0.49620677 -0.80403248 0.32758298
vn 0.40608175 -0.75726710 0.51151164
vn 0.24897853 -0.72366834 0.64367214
vn 5.1856228e-2 -0.70834217 0.70396186
vn -0.15349717 -0.71351285 0.68362126
vn -0.33438139 -0.73843758 0.58557581
vn -0.46089081 -0.77942834 0.42434787
vn -0.67257717 -0.73440767 9.1023790e-2
vn -0.60357430 -0.77824617 -0.17329445
vn -0.43571797 -0.81362894 -0.38491272
vn -0.19944321 -0.83511020 -0.51265325
vn 6.7339297e-2 -0.83956423 -0.53907079
vn 0.32387776 -0.82636014 -0.46068658
vn 0.53033978 -0.79738546 -0.28795163
vn 0.65188700 -0.75696359 -4.5271096e-2
vn 0.66398533 -0.71153860 0.22986148
vn 0.55866037 -0.66892467 0.49034517
vn 0.34970484 -0.63701001 0.68696781
vn 7.3545246e-2 -0.62206484 0.77950397
vn -0.21698250 -0.62713502 0.74807771
vn -0.46535548 -0.65117928 0.59950798
vn -0.62568900 -0.68937024 0.36507799
g sphere2_default
usemtl default
s 1
f 1//1 16//16 30//30 15//15
f 2//2 17//17 16//16 1//1
f 3//3 18//18 17//17 2//2
f 4//4 19//19 18//18 3//3
f 5//5 20//20 19//19 4//4
f 6//6 21//21 20//20 5//5
f 7//7 22//22 21//21 6//6
f 8//8 23//23 22//22 7//7
f 9//9 24//24 23//23 8//8
f 10//10 25//25 24//24 9//9
f 11//11 26//26 25//25 10//10
f 12//12 27//27 26//26 11//11
f 13//13 28//28 27//27 12//12
f 14//14 29//29 28//28 13//13
f 15//15 30//30 29//29 14//14
f 16//16 31//31 45//45 30//30
f 17//17 32//32 31//31 16//16
f 18//18 33//33 32//32 17//17
f 19//19 34//34 33//33 18//18
f 20//20 35//35 34//34 19//19
f 21//21 36//36 35//35 20//20
f 22//22 37//37 36//36 21//21
f 23//23 38//38 37//37 22//22
f 24//24 39//39 38//38 23//23
f 25//25 40//40 39//39 24//24
f 26//26 41//41 40//40 25//25
f 27//27 42//42 41//41 26//26
f 28//28 43//43 42//42 27//27
f 29//29 44//44 43//43 28//28
f 30//30 45//45 44//44 29//29
f 31//31 46//46 60//60 45//45
f 32//32 47//47 46//46 31//31
f 33//33 48//48 47//47 32//32
f 34//34 49//49 48//48 33//33
f 35//35 50//50 49//49 34//34
f 36//36 51//51 50//50 35//35
f 37//37 52//52 51//51 36//36
f 38//38 53//53 52//52 37//37
f 39//39 54//54 53//53 38//38
f 40//40 55//55 54//54 39//39
f 41//41 56//56 55//55 40//40
f 42//42 57//57 56//56 41//41
f 43//43 58//58 57//57 42//42
f 44//44 59//59 58//58 43//43
f 45//45 60//60 59//59 44//44
f 46//46 61//61 75//75 60//60
f 47//47 62//62 61//61 46//46
f 48//48 63//63 62//62 47//47
f 49//49 64//64 63//63 48//48
f 50//50 65//65 64//64 49//49
f 51//51 66//66 65//65 50//50
f 52//52 67//67 66//66 51//51
f 53//53 68//68 67//67 52//52
f 54//54 69//69 68//68 53//53
f 55//55 70//70 69//69 54//54
f 56//56 71//71 70//70 55//55
f 57//57 72//72 71//71 56//56
f 58//58 73//73 72//72 57//57
f 59//59 74//74 73//73 58//58
f 60//60 75//75 74//74 59//59
f 61//61 76//76 90//90 75//75
f 62//62 77//77 76//76 61//61
f 63//63 78//78 77//77 62//62
f 64//64 79//79 78//78 63//63
f 65//65 80//80 79//79 64//64
f 66//66 81//81 80//80 65//65
f 67//67 82//82 81//81 66//66
f 68//68 83//83 82//82 67//67
f 69//69 84//84 83//83 68//68
f 70//70 85//85 84//84 69//69
f 71//71 86//86 85//85 70//70
f 72//72 87//87 86//86 71//71
f 73//73 88//88 87//87 72//72
f 74//74 89//89 88//88 73//73
f 75//75 90//90 89//89 74//74
f 76//76 91//91 105//105 90//90
f 77//77 92//92 91//91 76//76
f 78//78 93//93 92//92 77//77
f 79//79 94//94 93//93 78//78
f 80//80 95//95 94//94 79//79
f 81//81 96//96 95//95 80//80
f 82//82 97//97 96//96 81//81
f 83//83 98//98 97//97 82//82
f 84//84 99//99 98//98 83//83
f 85//85 100//100 99//99 84//84
f 86//86 101//101 100//100 85//85
f 87//87 102//102 101//101 86//86
f 88//88 103//103 102//102 87//87
f 89//89 104//104 103//103 88//88
f 90//90 105//105 104//104 89//89
f 91//91 106//106 120//120 105//105
f 92//92 107//107 106//106 91//91
f 93//93 108//108 107//107 92//92
f 94//94 109//109 108//108 93//93
f 95//95 110//110 109//109 94//94
f 96//96 111//111 110//110 95//95
f 97//97 112//112 111//111 96//96
f 98//98 113//113 112//112 97//97
f 99//99 114//114 113//113 98//98
f 100//100 115//115 114//114 99//99
f 101//101 116//116 115//115 100//100
f 102//102 117//117 116//116 101//101
f 103//103 118//118 117//117 102//102
f 104//104 119//119 118//118 103//103
f 105//105 120//120 119//119 104//104
f 107//107 108//108 109//109 110//110 111//111 112//112 113//113 114//114 115//115 116//116 117//117 118//118 119//119 120//120 106//106
o Cylinder1
#90 vertices, 76 faces
v 0.40000000 2.75000000 0.0000000e+0
v 0.36541818 2.75000000 0.16269466
v 0.26765224 2.75000000 0.29725793
v 0.12360680 2.75000000 0.38042261
v -4.1811385e-2 2.75000000 0.39780876
v -0.20000000 2.75000000 0.34641016
v -0.32360680 2.75000000 0.23511410
v -0.39125904 2.75000000 8.3164676e-2
v -0.39125904 2.75000000 -8.3164676e-2
v -0.32360680 2.75000000 -0.23511410
v -0.20000000 2.75000000 -0.34641016
v -4.1811385e-2 2.75000000 -0.39780876
v 0.12360680 2.75000000 -0.38042261
v 0.26765224 2.75000000 -0.29725793
v 0.36541818 2.75000000 -0.16269466
v 0.40000000 -2.75000000 0.0000000e+0
v 0.36541818 -2.75000000 0.16269466
v 0.26765224 -2.75000000 0.29725793
v 0.12360680 -2.75000000 0.38042261
v -4.1811385e-2 -2.75000000 0.39780876
v -0.20000000 -2.75000000 0.34641016
v -0.32360680 -2.75000000 0.23511410
v -0.39125904 -2.75000000 8.3164676e-2
v -0.39125904 -2.75000000 -8.3164676e-2
v -0.32360680 -2.75000000 -0.23511410
v -0.20000000 -2.75000000 -0.34641016
v -4.1811385e-2 -2.75000000 -0.39780876
v 0.12360680 -2.75000000 -0.38042261
v 0.26765224 -2.75000000 -0.29725793
v 0.36541818 -2.75000000 -0.16269466
v 0.35362833 2.75000000 0.15744548
v 0.38709440 2.75000000 5.8772093e-15
v 0.35362833 2.75000000 -0.15744548
v 0.25901671 2.75000000 -0.28766720
v 0.11961875 2.75000000 -0.36814865
v -4.0462383e-2 2.75000000 -0.38497386
v -0.19354720 2.75000000 -0.33523358
v -0.31316595 2.75000000 -0.22752838
v -0.37863546 2.75000000 -8.0481451e-2
v -0.37863546 2.75000000 8.0481451e-2
v -0.31316595 2.75000000 0.22752838
v -0.19354720 2.75000000 0.33523358
v -4.0462383e-2 2.75000000 0.38497386
v 0.11961875 2.75000000 0.36814865
v 0.25901671 2.75000000 0.28766720
v 2.7358700e-2 3.74312883 1.2180878e-2
v 2.9947826e-2 3.74312883 3.7287448e-15
v 2.7358700e-2 3.74312883 -1.2180878e-2
v 2.0039007e-2 3.74312883 -2.2255572e-2
v 9.2543871e-3 3.74312883 -2.8482075e-2
v -3.1304002e-3 3.74312883 -2.9783768e-2
v -1.4973913e-2 3.74312883 -2.5935578e-2
v -2.4228300e-2 3.74312883 -1.7602890e-2
v -2.9293394e-2 3.74312883 -6.2265031e-3
v -2.9293394e-2 3.74312883 6.2265031e-3
v -2.4228300e-2 3.74312883 1.7602890e-2
v -1.4973913e-2 3.74312883 2.5935578e-2
v -3.1304002e-3 3.74312883 2.9783768e-2
v 9.2543871e-3 3.74312883 2.8482075e-2
v 2.0039007e-2 3.74312883 2.2255572e-2
v 1.4040945e-2 3.75321011 6.2514314e-3
v 1.5369728e-2 3.75321011 3.6513043e-15
v 1.4040945e-2 3.75321011 -6.2514314e-3
v 1.0284355e-2 3.75321011 -1.1421934e-2
v 4.7495071e-3 3.75321011 -1.4617480e-2
v -1.6065740e-3 3.75321011 -1.5285531e-2
v -7.6848638e-3 3.75321011 -1.3310575e-2
v -1.2434371e-2 3.75321011 -9.0340993e-3
v -1.5033862e-2 3.75321011 -3.1955461e-3
v -1.5033862e-2 3.75321011 3.1955461e-3
v -1.2434371e-2 3.75321011 9.0340993e-3
v -7.6848638e-3 3.75321011 1.3310575e-2
v -1.6065740e-3 3.75321011 1.5285531e-2
v 4.7495071e-3 3.75321011 1.4617480e-2
v 1.0284355e-2 3.75321011 1.1421934e-2
v 0.37440000 -2.75000000 7.2641668e-18
v 0.34203142 -2.75000000 0.15228220
v 0.25052250 -2.75000000 0.27823342
v 0.11569596 -2.75000000 0.35607556
v -3.9135457e-2 -2.75000000 0.37234900
v -0.18720000 -2.75000000 0.32423991
v -0.30289596 -2.75000000 0.22006680
v -0.36621846 -2.75000000 7.7842137e-2
v -0.36621846 -2.75000000 -7.7842137e-2
v -0.30289596 -2.75000000 -0.22006680
v -0.18720000 -2.75000000 -0.32423991
v -3.9135457e-2 -2.75000000 -0.37234900
v 0.11569596 -2.75000000 -0.35607556
v 0.25052250 -2.75000000 -0.27823342
v 0.34203142 -2.75000000 -0.15228220
vn 0.69925278 0.71487450 -1.9841753e-16
vn 0.63879920 0.71487450 0.28441173
vn 0.46789144 0.71487450 0.51964608
vn 0.21608099 0.71487450 0.66502891
vn -7.3091818e-2 0.71487450 0.69542220
vn -0.34962639 0.71487450 0.60557067
vn -0.56570738 0.71487450 0.41101047
vn -0.68397243 0.71487450 0.14538283
vn -0.68397243 0.71487450 -0.14538283
vn -0.56570738 0.71487450 -0.41101047
vn -0.34962639 0.71487450 -0.60557067
vn -7.3091818e-2 0.71487450 -0.69542220
vn 0.21608099 0.71487450 -0.66502891
vn 0.46789144 0.71487450 -0.51964608
vn 0.63879920 0.71487450 -0.28441173
vn 0.69925278 -0.71487450 -1.9841753e-16
vn 0.63879920 -0.71487450 0.28441173
vn 0.46789144 -0.71487450 0.51964608
vn 0.21608099 -0.71487450 0.66502891
vn -7.3091818e-2 -0.71487450 0.69542220
vn -0.34962639 -0.71487450 0.60557067
vn -0.56570738 -0.71487450 0.41101047
vn -0.68397243 -0.71487450 0.14538283
vn -0.68397243 -0.71487450 -0.14538283
vn -0.56570738 -0.71487450 -0.41101047
vn -0.34962639 -0.71487450 -0.60557067
vn -7.3091818e-2 -0.71487450 -0.69542220
vn 0.21608099 -0.71487450 -0.66502891
vn 0.46789144 -0.71487450 -0.51964608
vn 0.63879920 -0.71487450 -0.28441173
vn 0.52026237 0.82199267 0.23163573
vn 0.56949806 0.82199267 3.4689255e-15
vn 0.52026237 0.82199267 -0.23163573
vn 0.38106858 0.82199267 -0.42321954
vn 0.17598458 0.82199267 -0.54162484
vn -5.9528757e-2 0.82199267 -0.56637829
vn -0.28474903 0.82199267 -0.49319979
vn -0.46073361 0.82199267 -0.33474256
vn -0.55705316 0.82199267 -0.11840530
vn -0.55705316 0.82199267 0.11840530
vn -0.46073361 0.82199267 0.33474256
vn -0.28474903 0.82199267 0.49319979
vn -5.9528757e-2 0.82199267 0.56637829
vn 0.17598458 0.82199267 0.54162484
vn 0.38106858 0.82199267 0.42321954
vn 0.72310503 0.61112125 0.32194710
vn 0.79153700 0.61112125 4.6896338e-15
vn 0.72310503 0.61112125 -0.32194710
vn 0.52964163 0.61112125 -0.58822662
vn 0.24459838 0.61112125 -0.75279642
vn -8.2738146e-2 0.61112125 -0.78720087
vn -0.39576850 0.61112125 -0.68549115
vn -0.64036688 0.61112125 -0.46525377
vn -0.77424001 0.61112125 -0.16456980
vn -0.77424001 0.61112125 0.16456980
vn -0.64036688 0.61112125 0.46525377
vn -0.39576850 0.61112125 0.68549115
vn -8.2738146e-2 0.61112125 0.78720087
vn 0.24459838 0.61112125 0.75279642
vn 0.52964163 0.61112125 0.58822662
vn 0.36009830 0.91903469 0.16032609
vn 0.39417667 0.91903469 1.7350524e-14
vn 0.36009830 0.91903469 -0.16032609
vn 0.26375567 0.91903469 -0.29293035
vn 0.12180729 0.91903469 -0.37488429
vn -4.1202681e-2 0.91903469 -0.39201732
vn -0.19708833 0.91903469 -0.34136701
vn -0.31889562 0.91903469 -0.23169123
vn -0.38556296 0.91903469 -8.1953937e-2
vn -0.38556296 0.91903469 8.1953937e-2
vn -0.31889562 0.91903469 0.23169123
vn -0.19708833 0.91903469 0.34136701
vn -4.1202681e-2 0.91903469 0.39201732
vn 0.12180729 0.91903469 0.37488429
vn 0.26375567 0.91903469 0.29293035
vn 0.0000000e+0 -1.00000000 0.0000000e+0
vn 0.0000000e+0 -1.00000000 0.0000000e+0
vn 0.0000000e+0 -1.00000000 0.0000000e+0
vn 0.0000000e+0 -1.00000000 0.0000000e+0
vn 0.0000000e+0 -1.00000000 0.0000000e+0
vn 0.0000000e+0 -1.00000000 0.0000000e+0
vn 0.0000000e+0 -1.00000000 0.0000000e+0
vn 0.0000000e+0 -1.00000000 0.0000000e+0
vn 0.0000000e+0 -1.00000000 0.0000000e+0
vn 0.0000000e+0 -1.00000000 0.0000000e+0
vn 0.0000000e+0 -1.00000000 0.0000000e+0
vn 0.0000000e+0 -1.00000000 0.0000000e+0
vn 0.0000000e+0 -1.00000000 0.0000000e+0
vn 0.0000000e+0 -1.00000000 0.0000000e+0
vn 0.0000000e+0 -1.00000000 0.0000000e+0
g Cylinder1_default
usemtl default
s 1
f 121//121 136//136 150//150 135//135
f 121//121 152//152 151//151 122//122
f 122//122 137//137 136//136 121//121
f 122//122 151//151 165//165 123//123
f 123//123 138//138 137//137 122//122
f 123//123 165//165 164//164 124//124
f 124//124 139//139 138//138 123//123
f 124//124 164//164 163//163 125//125
f 125//125 140//140 139//139 124//124
f 125//125 163//163 162//162 126//126
f 126//126 141//141 140//140 125//125
f 126//126 162//162 161//161 127//127
f 127//127 142//142 141//141 126//126
f 127//127 161//161 160//160 128//128
f 128//128 143//143 142//142 127//127
f 128//128 160//160 159//159 129//129
f 129//129 144//144 143//143 128//128
f 129//129 159//159 158//158 130//130
f 130//130 145//145 144//144 129//129
f 130//130 158//158 157//157 131//131
f 131//131 146//146 145//145 130//130
f 131//131 157//157 156//156 132//132
f 132//132 147//147 146//146 131//131
f 132//132 156//156 155//155 133//133
f 133//133 148//148 147//147 132//132
f 133//133 155//155 154//154 134//134
f 134//134 149//149 148//148 133//133
f 134//134 154//154 153//153 135//135
f 135//135 150//150 149//149 134//134
f 135//135 153//153 152//152 121//121
f 136//136 196//196 210//210 150//150
f 137//137 197//197 196//196 136//136
f 138//138 198//198 197//197 137//137
f 139//139 199//199 198//198 138//138
f 140//140 200//200 199//199 139//139
f 141//141 201//201 200//200 140//140
f 142//142 202//202 201//201 141//141
f 143//143 203//203 202//202 142//142
f 144//144 204//204 203//203 143//143
f 145//145 205//205 204//204 144//144
f 146//146 206//206 205//205 145//145
f 147//147 207//207 206//206 146//146
f 148//148 208//208 207//207 147//147
f 149//149 209//209 208//208 148//148
f 150//150 210//210 209//209 149//149
f 151//151 166//166 180//180 165//165
f 152//152 167//167 166//166 151//151
f 153//153 168//168 167//167 152//152
f 154//154 169//169 168//168 153//153
f 155//155 170//170 169//169 154//154
f 156//156 171//171 170//170 155//155
f 157//157 172//172 171//171 156//156
f 158//158 173//173 172//172 157//157
f 159//159 174//174 173//173 158//158
f 160//160 175//175 174//174 159//159
f 161//161 176//176 175//175 160//160
f 162//162 177//177 176//176 161//161
f 163//163 178//178 177//177 162//162
f 164//164 179//179 178//178 163//163
f 165//165 180//180 179//179 164//164
f 167//167 168//168 183//183 182//182
f 168//168 169//169 184//184 183//183
f 169//169 170//170 185//185 184//184
f 170//170 171//171 186//186 185//185
f 171//171 172//172 187//187 186//186
f 172//172 173//173 188//188 187//187
f 173//173 174//174 189//189 188//188
f 174//174 175//175 190//190 189//189
f 175//175 176//176 191//191 190//190
f 176//176 177//177 192//192 191//191
f 177//177 178//178 193//193 192//192
f 178//178 179//179 194//194 193//193
f 179//179 180//180 195//195 194//194
f 180//180 166//166 181//181 195//195
f 182//182 181//181 166//166 167//167
f 182//182 183//183 184//184 185//185 186//186 187//187 188//188 189//189 190//190 191//191 192//192 193//193 194//194 195//195 181//181
